<svg width="40" height="40" viewBox="0 0 40 40" fill="none" xmlns="http://www.w3.org/2000/svg">
<path d="M36 23C36 20.5049 35.5086 18.0342 34.5537 15.729C33.5989 13.4239 32.1993 11.3293 30.435 9.565C28.6707 7.80069 26.5762 6.40116 24.271 5.44632C21.9658 4.49148 19.4951 4.00003 17 4.00003V23H36Z" fill="#F27A54"/>
<path d="M30 23C30 30.1797 24.1797 36 17 36C9.8203 36 4 30.1797 4 23C4 15.8203 9.8203 10 17 10C24.1797 10 30 15.8203 30 23ZM11.8 23C11.8 25.8719 14.1281 28.2 17 28.2C19.8719 28.2 22.2 25.8719 22.2 23C22.2 20.1281 19.8719 17.8 17 17.8C14.1281 17.8 11.8 20.1281 11.8 23Z" fill="#4C4C4D"/>
</svg>
